<svg xmlns="http://www.w3.org/2000/svg" viewBox="0 0 227.41 217.34"><defs><style>.cls-1{fill:none;stroke:#000;stroke-miterlimit:10;}</style></defs><title>資產 1</title><g id="圖層_2" data-name="圖層 2"><g id="圖層_1-2" data-name="圖層 1"><path class="cls-1" d="M133.8,123.53S151.59,90,153.92,82s14.29-47.56-8.82-68.51-71.66-21.28-77,35.25c7.26,1.26,33.75,16.12,51,36.2a5.09,5.09,0,0,0,8.94-3.39c-.16-14.54-2.47-30-16.22-26.16-3.33-6.65-12.14-19.62-4.82-23.61S142.61,25.6,133.8,123.53Z"/><path class="cls-1" d="M126.46,102S100.57,74.21,93.8,69.39,53.57,40.28,26.2,55.24s-43.62,60.71,8,84.28c3.57-6.44,26.3-26.59,50.94-36.31a5.08,5.08,0,0,0-.28-9.55c-13.78-4.63-29.13-7.51-30,6.74-7.38,1-22.52,5-23.89-3.2S36.84,61.57,126.46,102Z"/><path class="cls-1" d="M107.79,98.57s-35.23,14.26-42.14,18.88-41.54,27.2-37.33,58.11S69.49,238,109.93,198.1c-4.75-5.63-15.47-34-15.76-60.53a5.08,5.08,0,0,0-9-3.15c-9.24,11.23-17.41,24.54-4.42,30.46-1.73,7.23-3.33,22.83-11.49,21.17S38,167.87,107.79,98.57Z"/><path class="cls-1" d="M95.79,116.15s2.42,37.93,4.61,45.95,12.71,48,43.37,53.75,72.2-19.38,47.14-70.33c-6.84,2.73-37.19,3.93-62.41-4.15a5.09,5.09,0,0,0-5.84,7.58c7.74,12.31,17.8,24.25,27.51,13.79,6.32,3.93,20.61,10.37,16.47,17.59S139.54,204.2,95.79,116.15Z"/><path class="cls-1" d="M112.77,134.3s37.16,8,45.48,8,49.65.83,63.52-27.11,1-74.75-54.86-64.49c.76,7.32-6.33,36.86-21,58.93a5.09,5.09,0,0,0,5.7,7.68c13.95-4.11,28.18-10.53,20.75-22.72,5.5-5,15.58-17,21.41-11.07S209.41,116.14,112.77,134.3Z"/></g></g></svg>