<svg xmlns="http://www.w3.org/2000/svg" xmlns:xlink="http://www.w3.org/1999/xlink" width="57.499" height="35.953" viewBox="0 0 57.499 35.953">
  <defs>
    <clipPath id="clip-path">
      <rect width="57.499" height="35.953" fill="none"/>
    </clipPath>
  </defs>
  <g id="btm_na_hover" clip-path="url(#clip-path)">
    <path id="路径_161" data-name="路径 161" d="M308.588,106.442h42.993c7.919,0,7.043-10.168,1.005-10.308-5.447-.126-5.2,4.568-4.022,4.777" transform="translate(-304.191 -92.688)" fill="none" stroke="#0aacdd" stroke-linecap="round" stroke-linejoin="round" stroke-width="1"/>
    <path id="路径_162" data-name="路径 162" d="M315.879,115.617h30.833c5.68,0,5.051,7.292.721,7.392-3.906.091-3.726-3.275-2.885-3.425" transform="translate(-304.191 -92.688)" fill="none" stroke="#0aacdd" stroke-linecap="round" stroke-linejoin="round" stroke-width="1"/>
    <line id="直线_6" data-name="直线 6" x2="36.456" transform="translate(0.5 18.909)" fill="none" stroke="#0aacdd" stroke-linecap="round" stroke-linejoin="round" stroke-width="1"/>
    <circle id="椭圆_1400" data-name="椭圆 1400" cx="2.053" cy="2.053" r="2.053" transform="translate(29.959 2.12)" stroke-width="1" stroke="#0aacdd" stroke-linecap="round" stroke-linejoin="round" fill="none"/>
    <circle id="椭圆_1401" data-name="椭圆 1401" cx="2.053" cy="2.053" r="2.053" transform="translate(50.073 31.347)" stroke-width="1" stroke="#0aacdd" stroke-linecap="round" stroke-linejoin="round" fill="none"/>
    <circle id="椭圆_1402" data-name="椭圆 1402" cx="1.295" cy="1.295" r="1.295" transform="translate(16.892 6.778)" stroke-width="1" stroke="#0aacdd" stroke-linecap="round" stroke-linejoin="round" fill="none"/>
    <circle id="椭圆_1403" data-name="椭圆 1403" cx="1.295" cy="1.295" r="1.295" transform="translate(50.331 18.909)" stroke-width="1" stroke="#0aacdd" stroke-linecap="round" stroke-linejoin="round" fill="none"/>
    <circle id="椭圆_1404" data-name="椭圆 1404" cx="0.984" cy="0.984" r="0.984" transform="translate(28.957 27.705)" stroke-width="1" stroke="#0aacdd" stroke-linecap="round" stroke-linejoin="round" fill="none"/>
    <circle id="椭圆_1405" data-name="椭圆 1405" cx="0.684" cy="0.684" r="0.684" transform="translate(16.355 33.185)" stroke-width="1" stroke="#0aacdd" stroke-linecap="round" stroke-linejoin="round" fill="none"/>
    <circle id="椭圆_1406" data-name="椭圆 1406" cx="0.684" cy="0.684" r="0.684" transform="translate(22.012 0.5)" stroke-width="1" stroke="#0aacdd" stroke-linecap="round" stroke-linejoin="round" fill="none"/>
    <circle id="椭圆_1407" data-name="椭圆 1407" cx="0.684" cy="0.684" r="0.684" transform="translate(55.631 13.142)" stroke-width="1" stroke="#0aacdd" stroke-linecap="round" stroke-linejoin="round" fill="none"/>
  </g>
</svg>
