<svg xmlns="http://www.w3.org/2000/svg" xmlns:xlink="http://www.w3.org/1999/xlink" width="49.85" height="49.85" viewBox="0 0 49.85 49.85">
  <defs>
    <clipPath id="clip-path">
      <rect width="49.85" height="49.85" fill="none"/>
    </clipPath>
  </defs>
  <g id="btm_all_hover_2" data-name="btm_all_hover – 2" clip-path="url(#clip-path)">
    <circle id="椭圆_895" data-name="椭圆 895" cx="24.425" cy="24.425" r="24.425" transform="translate(0.5 0.5)" stroke-width="1" stroke="#0aacdd" stroke-linecap="round" stroke-linejoin="round" fill="none"/>
    <g id="组_62" data-name="组 62" transform="translate(12.924 13.965)">
      <path id="路径_76" data-name="路径 76" d="M587.286-293.4a1.258,1.258,0,0,1-.775-.259,1.308,1.308,0,0,1-.474-.668l-1.271-4.006a.225.225,0,0,0-.215-.172h-5.708a.193.193,0,0,0-.194.172l-1.335,4.071a1.242,1.242,0,0,1-.452.624,1.205,1.205,0,0,1-.732.237.618.618,0,0,1-.538-.28.6.6,0,0,1-.129-.366.573.573,0,0,1,.043-.215l4.889-14.323a1.438,1.438,0,0,1,.517-.7,1.35,1.35,0,0,1,.818-.269,1.351,1.351,0,0,1,.819.269,1.319,1.319,0,0,1,.5.7l4.911,14.259a.75.75,0,0,1,.043.237.656.656,0,0,1-.151.409A.639.639,0,0,1,587.286-293.4Zm-8.077-6.677a.1.1,0,0,0,.011.1.107.107,0,0,0,.1.053h4.76a.132.132,0,0,0,.107-.053.088.088,0,0,0,.022-.1l-.8-2.477q-.625-1.852-1.658-5.428a.07.07,0,0,0-.065-.043.038.038,0,0,0-.043.043q-.71,2.52-1.658,5.428Z" transform="translate(-575.462 310.951)" fill="#0aacdd"/>
      <path id="路径_77" data-name="路径 77" d="M620.477-295.746q-1.939,0-1.939-2.455V-312.7a.834.834,0,0,1,.269-.625.886.886,0,0,1,.636-.259.851.851,0,0,1,.624.259.852.852,0,0,1,.259.625v14.624a.857.857,0,0,0,.3.776q.043.021.237.129l.269.151a.706.706,0,0,1,.172.162.534.534,0,0,1,.118.248v.022a.642.642,0,0,1,.022.151.834.834,0,0,1-.108.409.681.681,0,0,1-.474.28Z" transform="translate(-603.569 313.58)" fill="#0aacdd"/>
      <path id="路径_78" data-name="路径 78" d="M638.141-295.746q-1.939,0-1.939-2.455V-312.7a.834.834,0,0,1,.27-.625.885.885,0,0,1,.635-.259.852.852,0,0,1,.625.259.852.852,0,0,1,.258.625v14.624a.857.857,0,0,0,.3.776q.043.021.237.129l.269.151a.7.7,0,0,1,.172.162.53.53,0,0,1,.119.248v.022a.642.642,0,0,1,.022.151.834.834,0,0,1-.108.409.681.681,0,0,1-.474.28Z" transform="translate(-615.095 313.58)" fill="#0aacdd"/>
    </g>
  </g>
</svg>
