<svg xmlns="http://www.w3.org/2000/svg" xmlns:xlink="http://www.w3.org/1999/xlink" width="40.554" height="41.365" viewBox="0 0 40.554 41.365">
  <defs>
    <clipPath id="clip-path">
      <rect width="40.554" height="41.365" fill="none"/>
    </clipPath>
  </defs>
  <g id="btm_sick" clip-path="url(#clip-path)">
    <path id="路径_62" data-name="路径 62" d="M492.837,121.868l1.775-1.777a13.086,13.086,0,0,0-6.18-3.472l-.01-.011-.007.006a13.279,13.279,0,0,0-4.419-.319,13.176,13.176,0,0,0-14.385-14.415,13.151,13.151,0,0,0-3.692-11.4L464.14,92.26a10.777,10.777,0,0,1,.8.91l-7.193,7.191a10.587,10.587,0,0,1-.909-.8l-1.778,1.777a13.149,13.149,0,0,0,11.395,3.693,13.177,13.177,0,0,0,14.415,14.385,13.167,13.167,0,0,0,3.692,11.427l1.776-1.781a10.4,10.4,0,0,1-.706-.807l6.774-6.775C492.547,121.614,492.7,121.729,492.837,121.868Zm-9.3-2.982a10.76,10.76,0,0,1,2.7-.092l-3.008,3.009a10.648,10.648,0,0,1,.313-2.916Zm-2.786-7.893-5.182,5.182a10.578,10.578,0,0,1-2.273-1.264l6.191-6.189a10.547,10.547,0,0,1,1.264,2.272Zm-7.028-6.268-4.42,4.423a10.76,10.76,0,0,1-.245-4.671,10.714,10.714,0,0,1,4.664.249Zm-7.632-9.747a10.546,10.546,0,0,1,.986,2.931l-4.589,4.593a10.6,10.6,0,0,1-2.934-.988Zm-.775,7.657,1.894-1.894a10.666,10.666,0,0,1-.255,1.638,10.8,10.8,0,0,1-1.64.258Zm4.83,8.629,5.7-5.694a10.6,10.6,0,0,1,2.243,1.586l-6.35,6.357a10.518,10.518,0,0,1-1.589-2.247Zm7.739,5.559,3.514-3.517a10.787,10.787,0,0,1-.007,3.509,10.782,10.782,0,0,1-3.508.01Zm6.563,9.652a10.563,10.563,0,0,1-.841-2.09l5.08-5.08a10.545,10.545,0,0,1,2.019.915Z" transform="translate(-454.558 -89.982)" fill="none" stroke="#969696" stroke-linecap="round" stroke-linejoin="round" stroke-width="1"/>
  </g>
</svg>
