<svg xmlns="http://www.w3.org/2000/svg" xmlns:xlink="http://www.w3.org/1999/xlink" width="42.595" height="40.178" viewBox="0 0 42.595 40.178">
  <defs>
    <clipPath id="clip-path">
      <rect width="42.595" height="40.178" fill="none"/>
    </clipPath>
  </defs>
  <g id="btm_work" clip-path="url(#clip-path)">
    <rect id="矩形_41" data-name="矩形 41" width="10.361" height="2.244" transform="translate(16.292 29.582)" stroke-width="1" stroke="#969696" stroke-linecap="round" stroke-linejoin="round" fill="none"/>
    <rect id="矩形_42" data-name="矩形 42" width="10.361" height="2.244" transform="translate(16.292 32.746)" stroke-width="1" stroke="#969696" stroke-linecap="round" stroke-linejoin="round" fill="none"/>
    <rect id="矩形_43" data-name="矩形 43" width="10.361" height="2.244" transform="translate(2.16 29.582)" stroke-width="1" stroke="#969696" stroke-linecap="round" stroke-linejoin="round" fill="none"/>
    <rect id="矩形_44" data-name="矩形 44" width="10.361" height="2.244" transform="translate(2.16 32.746)" stroke-width="1" stroke="#969696" stroke-linecap="round" stroke-linejoin="round" fill="none"/>
    <path id="路径_156" data-name="路径 156" d="M435.409,130.189H423.2l2.907-27.978H432.5Z" transform="translate(-393.314 -90.511)" fill="none" stroke="#969696" stroke-linecap="round" stroke-linejoin="round" stroke-width="1"/>
    <path id="路径_157" data-name="路径 157" d="M407.173,130.189H393.814V120.052l13.359-9.62Z" transform="translate(-393.314 -90.511)" fill="none" stroke="#969696" stroke-linecap="round" stroke-linejoin="round" stroke-width="1"/>
    <path id="路径_158" data-name="路径 158" d="M421.622,130.189H408.263V120.052l13.359-9.62Z" transform="translate(-393.314 -90.511)" fill="none" stroke="#969696" stroke-linecap="round" stroke-linejoin="round" stroke-width="1"/>
    <path id="路径_159" data-name="路径 159" d="M428.895,96.551a2.306,2.306,0,1,0-4.383-1.377,2.686,2.686,0,0,0-1.623.76,3.309,3.309,0,0,0-4.369-.886,2.856,2.856,0,0,0-2.122-1.519,3.249,3.249,0,0,0-.126-.431,3.139,3.139,0,0,0-6,.636,3.61,3.61,0,0,0-1.057.239,3.657,3.657,0,0,0-1.995,1.972,4.57,4.57,0,1,0,2.13,4.858,3.62,3.62,0,0,0,4.722-2.31,2.865,2.865,0,0,0,2.967.536,3.351,3.351,0,0,0,5.954.8,2.657,2.657,0,0,0,3.848-.263,2.1,2.1,0,1,0,2.055-3.012Z" transform="translate(-393.314 -90.511)" fill="none" stroke="#969696" stroke-linecap="round" stroke-linejoin="round" stroke-width="1"/>
  </g>
</svg>
