<svg xmlns="http://www.w3.org/2000/svg" width="196" height="196" viewBox="0 0 196 196">
  <g id="Group_124" data-name="Group 124" transform="translate(-905 -711)">
    <circle id="Ellipse_880" data-name="Ellipse 880" cx="98" cy="98" r="98" transform="translate(905 711)" fill="#ebebeb"/>
    <path id="Path_62" data-name="Path 62" d="M924.327,562.687l4.941-4.945a36.419,36.419,0,0,0-17.2-9.663l-.028-.032-.018.018a36.936,36.936,0,0,0-12.3-.887,36.664,36.664,0,0,0-40.032-40.118,36.6,36.6,0,0,0-10.277-31.722l-4.949,4.949a30.269,30.269,0,0,1,2.219,2.531l-20.018,20.014a29.608,29.608,0,0,1-2.531-2.215l-4.948,4.945A36.6,36.6,0,0,0,850.9,515.839a36.678,36.678,0,0,0,40.118,40.036,36.64,36.64,0,0,0,10.273,31.8l4.945-4.956a28.479,28.479,0,0,1-1.967-2.247l18.853-18.853C923.521,561.981,923.943,562.3,924.327,562.687Zm-25.882-8.3a30.014,30.014,0,0,1,7.5-.256l-8.371,8.374A29.7,29.7,0,0,1,898.444,554.391Zm-7.753-21.967-14.423,14.423a29.514,29.514,0,0,1-6.326-3.518L887.173,526.1A29.312,29.312,0,0,1,890.691,532.424Zm-19.56-17.444-12.3,12.311a29.95,29.95,0,0,1-.682-13A29.848,29.848,0,0,1,871.131,514.98Zm-21.239-27.125a29.386,29.386,0,0,1,2.744,8.158l-12.773,12.78a29.433,29.433,0,0,1-8.165-2.748Zm-2.158,21.31,5.272-5.272a29.681,29.681,0,0,1-.71,4.558A30.085,30.085,0,0,1,847.734,509.165Zm13.444,24.015,15.85-15.847a29.55,29.55,0,0,1,6.244,4.413L865.6,539.435A29.393,29.393,0,0,1,861.177,533.18Zm21.537,15.47,9.78-9.787a30.052,30.052,0,0,1-.021,9.766A30.013,30.013,0,0,1,882.714,548.651Zm18.264,26.862a29.339,29.339,0,0,1-2.339-5.815l14.136-14.139a29.306,29.306,0,0,1,5.62,2.545Z" transform="translate(128.318 278.411)" fill="none" stroke="#797979" stroke-width="1"/>
  </g>
</svg>
