<svg xmlns="http://www.w3.org/2000/svg" width="196" height="196" viewBox="0 0 196 196">
  <g id="Group_122" data-name="Group 122" transform="translate(-179 -711)">
    <circle id="Ellipse_878" data-name="Ellipse 878" cx="98" cy="98" r="98" transform="translate(179 711)" fill="#ebebeb"/>
    <g id="Group_46" data-name="Group 46" transform="translate(223 779.531)">
      <g id="Group_40" data-name="Group 40" transform="translate(0 26.417)">
        <rect id="Rectangle_30" data-name="Rectangle 30" width="79.7" height="12.873" fill="none" stroke="#797979" stroke-width="1"/>
      </g>
      <g id="Group_41" data-name="Group 41" transform="translate(84.645 26.417)">
        <rect id="Rectangle_31" data-name="Rectangle 31" width="9.905" height="12.873" fill="none" stroke="#797979" stroke-width="1"/>
      </g>
      <g id="Group_43" data-name="Group 43" transform="translate(98.099 8.803)">
        <g id="Group_42" data-name="Group 42">
          <path id="Path_64" data-name="Path 64" d="M754.231,505.7l-.768-1.276c.12-.076,2.984-1.968-.248-7.143-1.516-2.416-2.064-4.587-1.607-6.439a4.52,4.52,0,0,1,1.856-2.755l.768,1.276-.384-.64.384.632c-.124.084-2.991,1.968.24,7.139,1.516,2.428,2.064,4.6,1.62,6.451A4.588,4.588,0,0,1,754.231,505.7Z" transform="translate(-751.452 -488.082)" fill="none" stroke="#797979" stroke-width="1"/>
        </g>
      </g>
      <g id="Group_45" data-name="Group 45" transform="translate(102.889)">
        <g id="Group_44" data-name="Group 44">
          <path id="Path_65" data-name="Path 65" d="M754.662,503.487l.772-1.28c-.124-.076-2.992-1.956.244-7.131,1.512-2.428,2.06-4.6,1.616-6.439a4.59,4.59,0,0,0-1.86-2.755l-.772,1.268.38-.636-.38.636c.116.076,2.984,1.968-.252,7.139-1.516,2.424-2.056,4.587-1.608,6.443A4.522,4.522,0,0,0,754.662,503.487Z" transform="translate(-752.65 -485.881)" fill="none" stroke="#797979" stroke-width="1"/>
        </g>
      </g>
    </g>
  </g>
</svg>
