<svg xmlns="http://www.w3.org/2000/svg" width="196" height="196" viewBox="0 0 196 196">
  <g id="Group_123" data-name="Group 123" transform="translate(-543 -711)">
    <circle id="Ellipse_879" data-name="Ellipse 879" cx="98" cy="98" r="98" transform="translate(543 711)" fill="#ebebeb"/>
    <g id="Group_39" data-name="Group 39" transform="translate(603 751.643)">
      <path id="Path_63" data-name="Path 63" d="M849.776,499.869c0-10.621-8.689-19.536-20.461-22.133v-.764a1.582,1.582,0,1,0-3.164,0v3.659a1.586,1.586,0,0,0,1.58,1.584,1.56,1.56,0,0,0,1.531-1.341c9.761,2.5,16.877,10.044,16.877,19,0,10.988-10.7,30.813-23.887,30.813s-23.891-19.825-23.891-30.813c0-9.132,7.4-16.828,17.467-19.169l.013-.187v.118a1.577,1.577,0,1,0,3.154,0v-3.659a1.577,1.577,0,1,0-3.154,0v.61c-12.112,2.41-21.117,11.463-21.117,22.287,0,11.948,10.978,31.468,25,33.626V567.6c0,9.738-7.43,17.631-16.582,17.631s-16.592-7.893-16.592-17.631V545.318a8.34,8.34,0,1,0-5.073.105v22.566a21.66,21.66,0,1,0,43.318,0V542.545h-.013v-9.05C838.794,531.337,849.776,511.817,849.776,499.869Zm-66.668,42.676a5.149,5.149,0,1,1,1.485,0Z" transform="translate(-775.507 -475.388)" fill="none" stroke="#797979" stroke-width="1"/>
    </g>
  </g>
</svg>
