<svg xmlns="http://www.w3.org/2000/svg" xmlns:xlink="http://www.w3.org/1999/xlink" width="49" height="49" viewBox="0 0 49 49">
  <defs>
    <clipPath id="clip-path">
      <rect width="49" height="49" fill="none"/>
    </clipPath>
  </defs>
  <g id="icon_select" clip-path="url(#clip-path)">
    <ellipse id="椭圆_1446" data-name="椭圆 1446" cx="24" cy="24" rx="24" ry="24" transform="translate(0.5 0.5)" fill="none" stroke="#fff" stroke-linecap="round" stroke-linejoin="round" stroke-width="1"/>
    <path id="路径_182" data-name="路径 182" d="M71.5,227.023a37.042,37.042,0,0,0-1.989-7.132c-1.262-2.863-1.262-7.666-1.262-9.122,0-1.941,3.2-1.99,3.2,0v-3.4c0-2.523,4.028-3.154,4.028-.242V204.8c0-1.552,3.979-2.232,3.979.582v-6.7a2.168,2.168,0,1,1,4.318,0v15.284a9.548,9.548,0,0,0,3.154-2.135c.733-.978,3.074-3.015,4.9-2.008a1.132,1.132,0,0,1,.266,1.72c-1.511,1.781-4.361,5.566-4.969,6.5-.728,1.117-4.271,3.251-4.271,8.977" transform="translate(-55.187 -185.585)" fill="none" stroke="#fff" stroke-linecap="round" stroke-linejoin="round" stroke-width="1"/>
    <path id="路径_183" data-name="路径 183" d="M77.26,197.705a5.386,5.386,0,0,1,10.772,0" transform="translate(-56.379 -185.056)" fill="none" stroke="#fff" stroke-linecap="round" stroke-linejoin="round" stroke-width="1"/>
    <path id="路径_184" data-name="路径 184" d="M75.028,197.41a7.323,7.323,0,0,1,14.646,0" transform="translate(-56.084 -184.76)" fill="none" stroke="#fff" stroke-linecap="round" stroke-linejoin="round" stroke-width="1"/>
  </g>
</svg>
