<svg xmlns="http://www.w3.org/2000/svg" xmlns:xlink="http://www.w3.org/1999/xlink" width="55.413" height="20.853" viewBox="0 0 55.413 20.853">
  <defs>
    <clipPath id="clip-path">
      <rect width="55.413" height="20.853" fill="none"/>
    </clipPath>
  </defs>
  <g id="组_46" data-name="组 46" clip-path="url(#clip-path)">
    <g id="组_40" data-name="组 40" transform="translate(-129.738 -94.583)">
      <rect id="矩形_30" data-name="矩形 30" width="40.273" height="6.505" transform="translate(130.238 108.431)" stroke-width="1" stroke="#969696" stroke-linecap="round" stroke-linejoin="round" fill="none"/>
    </g>
    <g id="组_41" data-name="组 41" transform="translate(-129.738 -94.583)">
      <rect id="矩形_31" data-name="矩形 31" width="5.005" height="6.505" transform="translate(173.009 108.431)" stroke-width="1" stroke="#969696" stroke-linecap="round" stroke-linejoin="round" fill="none"/>
    </g>
    <g id="组_43" data-name="组 43" transform="translate(-129.738 -94.583)">
      <g id="组_42" data-name="组 42">
        <path id="路径_64" data-name="路径 64" d="M181.212,108.433l-.388-.644c.06-.039,1.507-1-.126-3.61a4.287,4.287,0,0,1-.812-3.253,2.283,2.283,0,0,1,.938-1.392l.388.644-.194-.323.194.319c-.062.043-1.511.995.121,3.608a4.343,4.343,0,0,1,.819,3.259A2.315,2.315,0,0,1,181.212,108.433Z" fill="none" stroke="#969696" stroke-linecap="round" stroke-linejoin="round" stroke-width="1"/>
      </g>
    </g>
    <g id="组_45" data-name="组 45" transform="translate(-129.738 -94.583)">
      <g id="组_44" data-name="组 44">
        <path id="路径_65" data-name="路径 65" d="M183.244,103.979l.391-.647c-.063-.038-1.512-.988.123-3.6a4.341,4.341,0,0,0,.816-3.254,2.32,2.32,0,0,0-.939-1.392l-.39.641.192-.321-.192.321c.058.039,1.507,1-.128,3.607a4.314,4.314,0,0,0-.812,3.256A2.284,2.284,0,0,0,183.244,103.979Z" fill="none" stroke="#969696" stroke-linecap="round" stroke-linejoin="round" stroke-width="1"/>
      </g>
    </g>
  </g>
</svg>
